<svg xmlns="http://www.w3.org/2000/svg" version="1.1" xmlns:xlink="http://www.w3.org/1999/xlink" xmlns:svgjs="http://svgjs.dev/svgjs" width="1920" height="920" preserveAspectRatio="none" viewBox="0 0 1920 920">
    <g mask="url(&quot;#SvgjsMask3283&quot;)" fill="none">
        <rect width="1920" height="920" x="0" y="0" fill="url(&quot;#SvgjsLinearGradient3284&quot;)"></rect>
        <path d="M1920 0L1514.59 0L1920 207.17z" fill="rgba(255, 255, 255, .1)"></path>
        <path d="M1514.59 0L1920 207.17L1920 548.1899999999999L830.9799999999999 0z" fill="rgba(255, 255, 255, .075)"></path>
        <path d="M830.98 0L1920 548.1899999999999L1920 705.68L564.02 0z" fill="rgba(255, 255, 255, .05)"></path>
        <path d="M564.02 0L1920 705.68L1920 775.03L259.13 0z" fill="rgba(255, 255, 255, .025)"></path>
        <path d="M0 920L29.14 920L0 487.74z" fill="rgba(0, 0, 0, .1)"></path>
        <path d="M0 487.74L29.14 920L856.6 920L0 297.42z" fill="rgba(0, 0, 0, .075)"></path>
        <path d="M0 297.4200000000001L856.6 920L920.39 920L0 296.18000000000006z" fill="rgba(0, 0, 0, .05)"></path>
        <path d="M0 296.18000000000006L920.39 920L970.43 920L0 123.89000000000007z" fill="rgba(0, 0, 0, .025)"></path>
    </g>
    <defs>
        <mask id="SvgjsMask3283">
            <rect width="1920" height="920" fill="#ffffff"></rect>
        </mask>
        <linearGradient x1="50%" y1="100%" x2="50%" y2="0%" gradientUnits="userSpaceOnUse" id="SvgjsLinearGradient3284">
            <stop stop-color="rgba(14, 42, 71, 1)" offset="0"></stop>
            <stop stop-color="rgba(0, 172, 243, 1)" offset="1"></stop>
        </linearGradient>
    </defs>
</svg>